<svg width="16" height="12" viewBox="0 0 16 12" fill="none" xmlns="http://www.w3.org/2000/svg">
<path fill-rule="evenodd" clip-rule="evenodd" d="M2.4 0C1.07452 0 0 1.15127 0 2.57143V9.42857C0 10.8488 1.07452 12 2.4 12H13.6C14.9255 12 16 10.8488 16 9.42857V2.57143C16 1.15127 14.9255 0 13.6 0H2.4ZM2.74091 2.04243C2.46823 1.8407 2.09454 1.914 1.90626 2.20617C1.71798 2.49832 1.7864 2.8987 2.05909 3.10043L6.4404 6.34174C7.49592 7.1226 8.898 7.09809 9.9292 6.28071L13.9569 3.08823C14.2232 2.87708 14.2794 2.47452 14.0823 2.1891C13.8853 1.90367 13.5095 1.84347 13.2431 2.05462L9.21552 5.24709C8.5968 5.73754 7.75552 5.7522 7.12224 5.28369L2.74091 2.04243Z" fill="white"/>
</svg>
